# xmcd CD database file
#
# Track frame offsets:
#	187
#	14880
#	27082
#	53170
#	65107
#	82157
#	97152
#	110640
#	124747
#	136495
#	154770
#
# Disc length: 2241 seconds
#
# Revision: 0
# Processed by: cddbd v1.5.1PL0 Copyright (c) Steve Scherf et al.
# Submitted via: cdripper 1.0.7
#
DISCID=a208bf0b
DTITLE=T-Bones - Stripped To The Bones
DYEAR=1989
DGENRE=Blues
TTITLE0=I Love You Baby
TTITLE1=Worried About You
TTITLE2=The Fantasy
TTITLE3=Just A Little Bit
TTITLE4=Mojo Hand
TTITLE5=Hippie Song
TTITLE6=Ain't Got You
TTITLE7=Bombay Boogie
TTITLE8=Talked To My Baby
TTITLE9=Kin Bee
TTITLE10=Rooster Man
EXTD=YEAR: 1989
EXTT0=
EXTT1=
EXTT2=
EXTT3=
EXTT4=
EXTT5=
EXTT6=
EXTT7=
EXTT8=
EXTT9=
EXTT10=
PLAYORDER=
